<svg width="26" height="20" viewBox="0 0 26 20" fill="none" xmlns="http://www.w3.org/2000/svg">
<g filter="url(#filter0_b_9516_30674)">
<path d="M24.6509 15.4527C24.6509 15.7789 24.424 16.1667 23.8258 16.5827C23.2383 16.9912 22.3643 17.3739 21.2511 17.7013C19.0296 18.3547 15.9389 18.764 12.5094 18.764C9.08001 18.764 5.98925 18.3547 3.76774 17.7013C2.65458 17.3739 1.78054 16.9912 1.1931 16.5827C0.594841 16.1667 0.367925 15.7789 0.367925 15.4527C0.367925 15.1264 0.594841 14.7386 1.1931 14.3226C1.78054 13.9141 2.65458 13.5314 3.76774 13.204C5.98925 12.5507 9.08001 12.1414 12.5094 12.1414C15.9389 12.1414 19.0296 12.5507 21.2511 13.204C22.3643 13.5314 23.2383 13.9141 23.8258 14.3226C24.424 14.7386 24.6509 15.1264 24.6509 15.4527Z" stroke="white" stroke-opacity="0.2" stroke-width="0.735849"/>
</g>
<path d="M18.8527 6.21827C18.08 2.81865 15.1146 1.28809 12.5097 1.28809C12.5097 1.28809 12.5097 1.28809 12.5023 1.28809C9.90476 1.28809 6.93193 2.81129 6.15929 6.21092C5.29834 10.0079 7.62363 13.2236 9.72816 15.2471C10.5082 15.9977 11.5089 16.373 12.5097 16.373C13.5104 16.373 14.5112 15.9977 15.2838 15.2471C17.3883 13.2236 19.7136 10.0153 18.8527 6.21827Z" fill="#E64827"/>
<path d="M12.5098 9.9044C13.79 9.9044 14.8277 8.86663 14.8277 7.58648C14.8277 6.30633 13.79 5.26855 12.5098 5.26855C11.2297 5.26855 10.1919 6.30633 10.1919 7.58648C10.1919 8.86663 11.2297 9.9044 12.5098 9.9044Z" fill="white"/>
<defs>
<filter id="filter0_b_9516_30674" x="-2.9434" y="8.83004" width="30.9056" height="13.2452" filterUnits="userSpaceOnUse" color-interpolation-filters="sRGB">
<feFlood flood-opacity="0" result="BackgroundImageFix"/>
<feGaussianBlur in="BackgroundImageFix" stdDeviation="1.4717"/>
<feComposite in2="SourceAlpha" operator="in" result="effect1_backgroundBlur_9516_30674"/>
<feBlend mode="normal" in="SourceGraphic" in2="effect1_backgroundBlur_9516_30674" result="shape"/>
</filter>
</defs>
</svg>
