<svg xmlns="http://www.w3.org/2000/svg" width="19" height="18" viewBox="0 0 19 18" fill="none">
  <g clip-path="url(#clip0_8549_23418)">
    <path d="M18.5709 5.28937C18.5271 4.33136 18.3749 3.67712 18.1525 3.10474C17.9265 2.5042 17.5722 1.96024 17.1144 1.51062C16.6649 1.05276 16.1208 0.698318 15.5203 0.472275C14.9477 0.249939 14.2936 0.0979156 13.3356 0.0543823C12.3758 0.010437 12.0692 0 9.625 0C7.18082 0 6.87416 0.010437 5.91437 0.0541077C4.95636 0.0979156 4.30226 0.250076 3.72974 0.472549C3.1292 0.698456 2.58524 1.05276 2.13562 1.51062C1.67776 1.9601 1.32332 2.50406 1.09727 3.1046C0.874939 3.67712 0.722916 4.33136 0.679382 5.28923C0.635437 6.24916 0.625 6.55568 0.625 8.99986C0.625 11.4442 0.635437 11.7508 0.679382 12.7106C0.723053 13.6685 0.875214 14.3227 1.09769 14.8953C1.32359 15.4957 1.6779 16.0398 2.13576 16.4892C2.58524 16.9471 3.12933 17.3014 3.72987 17.5273C4.30226 17.7499 4.9565 17.9019 5.91451 17.9458C6.87444 17.9896 7.18095 17.9999 9.62514 17.9999C12.0693 17.9999 12.376 17.9896 13.3358 17.9458C14.2938 17.9019 14.9479 17.7499 15.5204 17.5273C16.7293 17.0598 17.685 16.1042 18.1525 14.8953C18.3751 14.3227 18.5271 13.6685 18.5709 12.7106C18.6146 11.7507 18.625 11.4442 18.625 9C18.625 6.55568 18.6146 6.24916 18.5709 5.28937ZM16.9508 12.6369C16.9109 13.5144 16.7642 13.991 16.641 14.308C16.3382 15.093 15.7179 15.7133 14.9329 16.0161C14.6158 16.1393 14.1393 16.286 13.2617 16.326C12.3129 16.3694 12.0283 16.3784 9.625 16.3784C7.2216 16.3784 6.93706 16.3694 5.98811 16.326C5.11072 16.286 4.63419 16.1393 4.31696 16.0161C3.92612 15.8718 3.57249 15.6418 3.28218 15.3428C2.98322 15.0525 2.75319 14.699 2.60886 14.308C2.48567 13.991 2.339 13.5144 2.29904 12.6369C2.25578 11.6879 2.24658 11.4033 2.24658 9.00014C2.24658 6.59688 2.25578 6.31233 2.29904 5.36325C2.33914 4.48572 2.48567 4.00919 2.60886 3.69209C2.75319 3.30112 2.98335 2.94749 3.28218 2.65718C3.57249 2.35822 3.92612 2.12819 4.31709 1.98399C4.63419 1.86067 5.11072 1.71414 5.98825 1.67404C6.93719 1.63078 7.22188 1.62158 9.625 1.62158H9.62486C12.028 1.62158 12.3127 1.63078 13.2617 1.67418C14.1393 1.71414 14.6157 1.86081 14.9329 1.98399C15.3237 2.12833 15.6774 2.35835 15.9677 2.65718C16.2666 2.94749 16.4967 3.30112 16.6409 3.69209C16.7642 4.00919 16.9109 4.48572 16.9508 5.36325C16.9941 6.31219 17.0033 6.59688 17.0033 9C17.0033 11.4033 16.9942 11.6878 16.9508 12.6369Z" fill="white"/>
    <path d="M9.62544 4.37695C7.07304 4.37695 5.00391 6.44623 5.00391 8.99863C5.00391 11.551 7.07304 13.6202 9.62544 13.6202C12.178 13.6202 14.2471 11.551 14.2471 8.99863C14.2471 6.44623 12.178 4.37695 9.62544 4.37695ZM9.62544 11.9986C7.9687 11.9984 6.62549 10.6554 6.62563 8.99849C6.62563 7.34175 7.9687 5.99854 9.62558 5.99854C11.2825 5.99867 12.6255 7.34175 12.6255 8.99849C12.6255 10.6554 11.2823 11.9986 9.62544 11.9986Z" fill="white"/>
    <path d="M15.5097 4.19728C15.5097 4.7937 15.0261 5.27724 14.4297 5.27724C13.8331 5.27724 13.3496 4.7937 13.3496 4.19728C13.3496 3.60072 13.8331 3.11719 14.4297 3.11719C15.0261 3.11719 15.5097 3.60072 15.5097 4.19728Z" fill="white"/>
  </g>
  <defs>
    <clipPath id="clip0_8549_23418">
      <rect width="18" height="18" fill="white" transform="translate(0.625)"/>
    </clipPath>
  </defs>
</svg>