<svg xmlns="http://www.w3.org/2000/svg" width="60" height="49" viewBox="0 0 60 49" fill="none">
  <g filter="url(#filter0_f_9753_30413)">
    <path d="M44.8192 33.879H14.6523C11.7258 33.877 8.91372 32.8714 6.80461 31.0726C4.6955 29.2738 3.45293 26.8214 3.33703 24.2286C3.22112 21.6359 4.24086 19.1039 6.18278 17.1628C8.12469 15.2216 10.8382 14.0218 13.7553 13.8144C14.1713 11.2099 15.4977 8.78662 17.548 6.88542C19.5983 4.98421 22.2692 3.70079 25.185 3.21572C28.1009 2.73065 31.1148 3.06833 33.8029 4.18127C36.491 5.29421 38.7179 7.12639 40.1704 9.42004C42.8343 8.60239 45.7126 8.50684 48.4381 9.14558C51.1635 9.78432 53.6126 11.1284 55.473 13.0064C57.3334 14.8844 58.5207 17.2111 58.8835 19.6899C59.2463 22.1686 58.7682 24.6871 57.5102 26.9239C56.7719 28.945 55.3305 30.7067 53.3928 31.9563C51.4551 33.2059 49.1207 33.879 46.7247 33.879H44.8192Z" fill="url(#paint0_linear_9753_30413)"/>
    <path d="M46.7232 33.7396C47.9398 33.7396 49.136 33.5674 50.2785 33.2277C51.3833 32.8992 52.4205 32.4198 53.3613 31.8029C54.2912 31.1931 55.1064 30.4626 55.7842 29.6318C56.4704 28.7905 57.0001 27.8651 57.3587 26.8812L57.3624 26.8711L57.3678 26.8617C57.8446 26.0167 58.2118 25.1228 58.4592 24.2049C58.7138 23.2602 58.8429 22.2842 58.8429 21.304C58.8429 20.4602 58.747 19.6169 58.5579 18.7977C58.3737 17.9993 58.0987 17.214 57.7408 16.4636C57.3893 15.7267 56.9542 15.0161 56.4477 14.3513C55.946 13.6927 55.3697 13.0735 54.735 12.5107C54.1003 11.948 53.4019 11.437 52.6593 10.9921C51.9095 10.543 51.108 10.1573 50.2769 9.84561C49.4306 9.52821 48.5449 9.28443 47.6445 9.12106C46.7205 8.95341 45.7695 8.86841 44.8178 8.86841C43.242 8.86841 41.6952 9.09835 40.2205 9.55185L40.0961 9.59011L40.0315 9.48833C38.8314 7.59618 37.0857 6.00713 34.9831 4.89298C33.9198 4.32953 32.7774 3.89411 31.5877 3.59883C30.3604 3.29419 29.0855 3.13973 27.7985 3.13973C26.0675 3.13973 24.3777 3.41596 22.7762 3.96076C21.229 4.48706 19.8097 5.24731 18.5577 6.2204C17.3129 7.18789 16.2799 8.32944 15.4873 9.61333C14.6753 10.9288 14.1446 12.3487 13.9099 13.8336L13.8923 13.9448L13.7661 13.9535C12.3544 14.0515 10.9962 14.3811 9.72922 14.933C8.49809 15.4694 7.39875 16.1948 6.46172 17.0892C4.53632 18.9269 3.47594 21.3213 3.47594 23.8313C3.47594 25.1689 3.77138 26.4665 4.35405 27.688C4.63411 28.275 4.98075 28.8413 5.38434 29.371C5.78413 29.8957 6.24326 30.3891 6.74898 30.8375C7.2547 31.2859 7.81118 31.693 8.40293 32.0475C9.00033 32.4053 9.63895 32.7127 10.3011 32.961C11.6787 33.4776 13.1421 33.7396 14.6508 33.7396H44.8178H46.7232ZM46.7232 33.8793H44.8178H14.6508C8.39207 33.8793 3.31836 29.3806 3.31836 23.8313C3.31836 18.5495 7.91428 14.2195 13.7538 13.8142C14.7197 7.7028 20.6397 3 27.7985 3C33.1095 3 37.7386 5.58817 40.1689 9.41984C41.6253 8.97197 43.1894 8.72868 44.8178 8.72868C52.6507 8.72868 59.0005 14.3589 59.0005 21.304C59.0005 23.3239 58.4632 25.2329 57.5087 26.9242C56.0376 30.9602 51.765 33.8793 46.7232 33.8793Z" fill="url(#paint1_linear_9753_30413)"/>
  </g>
  <g filter="url(#filter1_d_9753_30413)">
    <path d="M16.8716 36.9453C17.0846 36.9477 19.2432 40.3182 19.2432 41.6281C19.2432 42.257 18.9933 42.8603 18.5486 43.305C18.1038 43.7498 17.5006 43.9997 16.8716 43.9997C16.2426 43.9997 15.6394 43.7498 15.1946 43.305C14.7499 42.8603 14.5 42.257 14.5 41.6281C14.5 40.3184 16.6588 36.9429 16.8716 36.9453Z" fill="#42A0F0"/>
    <path d="M15.0649 42.5158C15.3019 42.5883 15.6031 42.2902 15.7376 41.8502C15.8721 41.4101 15.7891 40.9946 15.5521 40.9222C15.3152 40.8497 15.014 41.1478 14.8794 41.5878C14.7449 42.0279 14.8279 42.4434 15.0649 42.5158Z" fill="white"/>
    <path d="M29.2505 36.9453C29.4635 36.9477 31.6221 40.3182 31.6221 41.6281C31.6221 42.257 31.3722 42.8603 30.9275 43.305C30.4827 43.7498 29.8795 43.9997 29.2505 43.9997C28.6215 43.9997 28.0183 43.7498 27.5735 43.305C27.1288 42.8603 26.8789 42.257 26.8789 41.6281C26.8789 40.3184 29.0377 36.9429 29.2505 36.9453Z" fill="#42A0F0"/>
    <path d="M27.4438 42.5158C27.6808 42.5883 27.982 42.2902 28.1165 41.8502C28.251 41.4101 28.168 40.9946 27.931 40.9222C27.6941 40.8497 27.3929 41.1478 27.2583 41.5878C27.1238 42.0279 27.2068 42.4434 27.4438 42.5158Z" fill="white"/>
    <path d="M41.6294 36.9453C41.8424 36.9477 44.001 40.3182 44.001 41.6281C44.001 42.257 43.7511 42.8603 43.3064 43.305C42.8616 43.7498 42.2584 43.9997 41.6294 43.9997C41.0004 43.9997 40.3972 43.7498 39.9524 43.305C39.5077 42.8603 39.2578 42.257 39.2578 41.6281C39.2578 40.3184 41.4166 36.9429 41.6294 36.9453Z" fill="#42A0F0"/>
    <path d="M39.8227 42.5158C40.0597 42.5883 40.3609 42.2902 40.4954 41.8502C40.6299 41.4101 40.5469 40.9946 40.3099 40.9222C40.073 40.8497 39.7718 41.1478 39.6373 41.5878C39.5027 42.0279 39.5857 42.4434 39.8227 42.5158Z" fill="white"/>
    <path d="M23.1274 26.5645C23.3404 26.5669 25.499 29.9374 25.499 31.2472C25.499 31.8762 25.2492 32.4794 24.8044 32.9242C24.3597 33.3689 23.7564 33.6188 23.1274 33.6188C22.4985 33.6188 21.8952 33.3689 21.4505 32.9242C21.0057 32.4794 20.7559 31.8762 20.7559 31.2472C20.7559 29.9375 22.9146 26.5621 23.1274 26.5645Z" fill="#42A0F0"/>
    <path d="M21.3208 32.1349C21.5577 32.2074 21.8589 31.9094 21.9935 31.4693C22.128 31.0293 22.045 30.6138 21.808 30.5413C21.571 30.4689 21.2698 30.7669 21.1353 31.207C21.0008 31.647 21.0838 32.0625 21.3208 32.1349Z" fill="white"/>
    <path d="M36.1743 26.5645C36.3873 26.5669 38.5459 29.9374 38.5459 31.2472C38.5459 31.8762 38.2961 32.4794 37.8513 32.9242C37.4065 33.3689 36.8033 33.6188 36.1743 33.6188C35.5453 33.6188 34.9421 33.3689 34.4974 32.9242C34.0526 32.4794 33.8027 31.8762 33.8027 31.2472C33.8027 29.9375 35.9615 26.5621 36.1743 26.5645Z" fill="#42A0F0"/>
    <path d="M34.3676 32.1349C34.6046 32.2074 34.9058 31.9094 35.0403 31.4693C35.1749 31.0293 35.0918 30.6138 34.8549 30.5413C34.6179 30.4689 34.3167 30.7669 34.1822 31.207C34.0476 31.647 34.1307 32.0625 34.3676 32.1349Z" fill="white"/>
    <path d="M12.2131 15.7672C12.6796 15.7298 13.0577 15.374 13.1233 14.9106C13.4454 12.6367 14.4722 10.521 16.0594 8.86104C17.6466 7.20113 19.7143 6.0806 21.9715 5.65709C24.2287 5.23358 26.5619 5.52841 28.6429 6.5001C30.7238 7.47179 32.4478 9.07143 33.5722 11.074C33.809 11.4959 34.314 11.6877 34.7712 11.5294C36.8335 10.8155 39.0617 10.7321 41.1716 11.2897C43.2816 11.8474 45.1775 13.0209 46.6177 14.6606C48.058 16.3003 48.9771 18.3318 49.258 20.496C49.5389 22.6602 49.1688 24.8591 48.1948 26.812C48.1726 26.8566 48.1537 26.9028 48.1384 26.9502C47.5799 28.6744 46.4896 30.1774 45.0239 31.2434C43.5582 32.3094 41.7924 32.8836 39.98 32.8837H38.3706H12.8916C10.6781 32.882 8.55104 32.0241 6.95574 30.4896C5.36044 28.9551 4.42058 26.863 4.33291 24.6513C4.24524 22.4395 5.01656 20.2795 6.48539 18.6236C7.95423 16.9676 10.0067 15.9441 12.2131 15.7672Z" fill="url(#paint2_linear_9753_30413)" stroke="url(#paint3_linear_9753_30413)" stroke-width="2" stroke-linejoin="round"/>
    <path d="M39.9792 33.7509C41.0068 33.7509 42.0171 33.5868 42.9821 33.2632C43.9152 32.9503 44.7913 32.4937 45.5859 31.906C46.3714 31.3251 47.0599 30.6293 47.6323 29.8378C48.2119 29.0365 48.6594 28.1549 48.9623 27.2177L48.9654 27.2081L48.9699 27.1991C49.3727 26.3941 49.6828 25.5426 49.8918 24.6682C50.1068 23.7684 50.2158 22.8387 50.2158 21.9049C50.2158 21.1011 50.1348 20.2978 49.9751 19.5174C49.8195 18.7569 49.5873 18.0088 49.2849 17.294C48.9881 16.5921 48.6206 15.9151 48.1928 15.2818C47.769 14.6545 47.2823 14.0646 46.7462 13.5285C46.2101 12.9924 45.6203 12.5057 44.993 12.082C44.3597 11.6541 43.6827 11.2867 42.9808 10.9898C42.266 10.6874 41.5179 10.4552 40.7574 10.2996C39.9769 10.1399 39.1737 10.0589 38.3698 10.0589C37.0389 10.0589 35.7325 10.278 34.4869 10.7099L34.3818 10.7464L34.3272 10.6494C33.3136 8.84701 31.8391 7.3333 30.0632 6.27198C29.1651 5.73524 28.2002 5.32047 27.1954 5.03918C26.1587 4.74899 25.0819 4.60185 23.9949 4.60185C22.5329 4.60185 21.1056 4.86499 19.7529 5.38396C18.4462 5.8853 17.2474 6.60951 16.1899 7.53646C15.1385 8.45808 14.266 9.5455 13.5966 10.7685C12.9107 12.0216 12.4625 13.3742 12.2642 14.7887L12.2494 14.8946L12.1428 14.9029C10.9505 14.9963 9.80328 15.3102 8.73313 15.836C7.6933 16.3469 6.76476 17.0379 5.97332 17.8899C4.34708 19.6405 3.45146 21.9214 3.45146 24.3123C3.45146 25.5866 3.70099 26.8226 4.19313 27.9862C4.42968 28.5454 4.72246 29.0848 5.06334 29.5894C5.40101 30.0892 5.78881 30.5592 6.21595 30.9864C6.6431 31.4135 7.11311 31.8013 7.61292 32.139C8.1175 32.4799 8.6569 32.7726 9.21614 33.0092C10.3797 33.5013 11.6157 33.7509 12.89 33.7509H38.3698H39.9792ZM39.9792 33.884H38.3698H12.89C7.60375 33.884 3.31836 29.5986 3.31836 24.3123C3.31836 19.281 7.2002 15.1563 12.1324 14.7702C12.9483 8.94857 17.9484 4.46875 23.9949 4.46875C28.4807 4.46875 32.3905 6.93421 34.4433 10.5842C35.6734 10.1576 36.9945 9.92581 38.3698 9.92581C44.9858 9.92581 50.3489 15.2891 50.3489 21.9049C50.3489 23.829 49.8951 25.6475 49.0889 27.2586C47.8464 31.1033 44.2376 33.884 39.9792 33.884Z" fill="white" fill-opacity="0.5"/>
  </g>
  <defs>
    <filter id="filter0_f_9753_30413" x="2.78596" y="2.4676" width="56.7484" height="31.9437" filterUnits="userSpaceOnUse" color-interpolation-filters="sRGB">
      <feFlood flood-opacity="0" result="BackgroundImageFix"/>
      <feBlend mode="normal" in="SourceGraphic" in2="BackgroundImageFix" result="shape"/>
      <feGaussianBlur stdDeviation="0.266201" result="effect1_foregroundBlur_9753_30413"/>
    </filter>
    <filter id="filter1_d_9753_30413" x="0.656344" y="0.741929" width="55.0173" height="47.5173" filterUnits="userSpaceOnUse" color-interpolation-filters="sRGB">
      <feFlood flood-opacity="0" result="BackgroundImageFix"/>
      <feColorMatrix in="SourceAlpha" type="matrix" values="0 0 0 0 0 0 0 0 0 0 0 0 0 0 0 0 0 0 127 0" result="hardAlpha"/>
      <feOffset dx="1.33101" dy="0.266201"/>
      <feGaussianBlur stdDeviation="1.99651"/>
      <feColorMatrix type="matrix" values="0 0 0 0 0.501961 0 0 0 0 0.501961 0 0 0 0 0.501961 0 0 0 0.302 0"/>
      <feBlend mode="normal" in2="BackgroundImageFix" result="effect1_dropShadow_9753_30413"/>
      <feBlend mode="normal" in="SourceGraphic" in2="effect1_dropShadow_9753_30413" result="shape"/>
    </filter>
    <linearGradient id="paint0_linear_9753_30413" x1="31.1648" y1="3" x2="44.2913" y2="38.7929" gradientUnits="userSpaceOnUse">
      <stop stop-color="white" stop-opacity="0.604"/>
      <stop offset="1" stop-color="white" stop-opacity="0.2"/>
    </linearGradient>
    <linearGradient id="paint1_linear_9753_30413" x1="33.7493" y1="3.92888" x2="33.7493" y2="37.3685" gradientUnits="userSpaceOnUse">
      <stop stop-color="white"/>
      <stop offset="1" stop-color="white" stop-opacity="0"/>
    </linearGradient>
    <linearGradient id="paint2_linear_9753_30413" x1="26.8378" y1="-4.94037" x2="26.8378" y2="37.9945" gradientUnits="userSpaceOnUse">
      <stop stop-color="white"/>
      <stop offset="1" stop-color="white" stop-opacity="0"/>
    </linearGradient>
    <linearGradient id="paint3_linear_9753_30413" x1="26.8378" y1="4.46875" x2="26.8378" y2="33.8837" gradientUnits="userSpaceOnUse">
      <stop stop-color="white"/>
      <stop offset="1" stop-color="white" stop-opacity="0"/>
    </linearGradient>
  </defs>
</svg>