<svg width="60" height="43" viewBox="0 0 60 43" fill="none" xmlns="http://www.w3.org/2000/svg">
<g id="Group 16">
<circle id="Ellipse 5" cx="33.9694" cy="11.9772" r="11.9772" fill="#FFC701" fill-opacity="0.5"/>
<circle id="Ellipse 4" cx="33.9692" cy="12.3696" r="10.5845" fill="url(#paint0_linear_9516_30685)" stroke="url(#paint1_linear_9516_30685)" stroke-width="2"/>
<g id="Mask group">
<mask id="mask0_9516_30685" style="mask-type:alpha" maskUnits="userSpaceOnUse" x="22" y="7" width="24" height="17">
<path id="Ellipse 5_2" d="M45.5537 12.3675C45.5537 18.7655 40.3672 23.952 33.9692 23.952C27.5713 23.952 22.3848 18.7655 22.3848 12.3675C22.3848 5.96962 26.6878 7.45887 33.0857 7.45887C39.4836 7.45887 45.5537 5.96962 45.5537 12.3675Z" fill="url(#paint2_linear_9516_30685)"/>
</mask>
<g mask="url(#mask0_9516_30685)">
<g id="Union" filter="url(#filter0_f_9516_30685)">
<path fill-rule="evenodd" clip-rule="evenodd" d="M43.0998 42.0151C43.1323 42.0154 43.1649 42.0156 43.1975 42.0156C47.8604 42.0156 51.6404 38.2356 51.6404 33.5727C51.6404 28.9098 47.8604 25.1298 43.1975 25.1298C43.1649 25.1298 43.1323 25.1299 43.0998 25.1303V25.1298H37.7176C37.8353 24.4276 37.8966 23.7063 37.8966 22.9706C37.8966 15.8136 32.0947 10.0117 24.9377 10.0117C17.7807 10.0117 11.9788 15.8136 11.9788 22.9706C11.9788 23.7349 12.045 24.4838 12.1719 25.2117C8.06818 25.7862 4.91016 29.3107 4.91016 33.5727C4.91016 38.2356 8.69018 42.0156 13.3531 42.0156C13.3861 42.0156 13.419 42.0154 13.4519 42.015L13.4514 42.0156H43.0998V42.0151Z" fill="#E18700"/>
</g>
</g>
</g>
<g id="Union_2" filter="url(#filter1_b_9516_30685)">
<mask id="path-5-inside-1_9516_30685" fill="white">
<path fill-rule="evenodd" clip-rule="evenodd" d="M38.1897 42.9984C38.2222 42.9987 38.2547 42.9989 38.2873 42.9989C42.9502 42.9989 46.7302 39.2189 46.7302 34.556C46.7302 29.8931 42.9502 26.1131 38.2873 26.1131C38.2547 26.1131 38.2222 26.1133 38.1897 26.1136V26.1131H36.0081C36.0869 25.5352 36.1276 24.9452 36.1276 24.3456C36.1276 17.1886 30.3257 11.3867 23.1687 11.3867C16.0117 11.3867 10.2098 17.1886 10.2098 24.3456C10.2098 25.021 10.2614 25.6844 10.361 26.3319C9.74481 26.1888 9.10271 26.1131 8.44292 26.1131C3.78003 26.1131 0 29.8931 0 34.556C0 39.2189 3.78003 42.9989 8.44292 42.9989C8.47591 42.9989 8.50884 42.9987 8.54173 42.9984L8.54129 42.9989H38.1897V42.9984Z"/>
</mask>
<path fill-rule="evenodd" clip-rule="evenodd" d="M38.1897 42.9984C38.2222 42.9987 38.2547 42.9989 38.2873 42.9989C42.9502 42.9989 46.7302 39.2189 46.7302 34.556C46.7302 29.8931 42.9502 26.1131 38.2873 26.1131C38.2547 26.1131 38.2222 26.1133 38.1897 26.1136V26.1131H36.0081C36.0869 25.5352 36.1276 24.9452 36.1276 24.3456C36.1276 17.1886 30.3257 11.3867 23.1687 11.3867C16.0117 11.3867 10.2098 17.1886 10.2098 24.3456C10.2098 25.021 10.2614 25.6844 10.361 26.3319C9.74481 26.1888 9.10271 26.1131 8.44292 26.1131C3.78003 26.1131 0 29.8931 0 34.556C0 39.2189 3.78003 42.9989 8.44292 42.9989C8.47591 42.9989 8.50884 42.9987 8.54173 42.9984L8.54129 42.9989H38.1897V42.9984Z" fill="url(#paint3_linear_9516_30685)"/>
<path d="M38.1897 42.9984L38.2123 40.9985C37.678 40.9924 37.1635 41.2005 36.7835 41.5762C36.4035 41.9519 36.1897 42.464 36.1897 42.9984H38.1897ZM38.1897 26.1136H36.1897C36.1897 26.648 36.4035 27.1601 36.7835 27.5358C37.1635 27.9115 37.678 28.1196 38.2123 28.1135L38.1897 26.1136ZM38.1897 26.1131H40.1897C40.1897 25.0085 39.2943 24.1131 38.1897 24.1131V26.1131ZM36.0081 26.1131L34.0264 25.8428C33.9484 26.4151 34.1215 26.9932 34.5013 27.4283C34.8811 27.8634 35.4305 28.1131 36.0081 28.1131V26.1131ZM10.361 26.3319L9.90847 28.28C10.555 28.4302 11.234 28.2499 11.7208 27.7986C12.2075 27.3473 12.4387 26.6839 12.3378 26.0278L10.361 26.3319ZM8.54173 42.9984L10.1127 44.2361C10.5894 43.6311 10.6763 42.806 10.3361 42.115C9.99584 41.4239 9.28899 40.9896 8.51877 40.9985L8.54173 42.9984ZM8.54129 42.9989L6.9703 41.7612C6.49617 42.363 6.40747 43.1827 6.74191 43.872C7.07636 44.5613 7.77516 44.9989 8.54129 44.9989L8.54129 42.9989ZM38.1897 42.9989V44.9989C39.2943 44.9989 40.1897 44.1035 40.1897 42.9989H38.1897ZM38.167 44.9982C38.2071 44.9987 38.2472 44.9989 38.2873 44.9989V40.9989C38.2623 40.9989 38.2373 40.9988 38.2123 40.9985L38.167 44.9982ZM38.2873 44.9989C44.0548 44.9989 48.7302 40.3235 48.7302 34.556H44.7302C44.7302 38.1143 41.8457 40.9989 38.2873 40.9989V44.9989ZM48.7302 34.556C48.7302 28.7885 44.0548 24.1131 38.2873 24.1131V28.1131C41.8457 28.1131 44.7302 30.9977 44.7302 34.556H48.7302ZM38.2873 24.1131C38.2472 24.1131 38.2071 24.1133 38.167 24.1138L38.2123 28.1135C38.2373 28.1132 38.2623 28.1131 38.2873 28.1131V24.1131ZM36.1897 26.1131V26.1136H40.1897V26.1131H36.1897ZM36.0081 28.1131H38.1897V24.1131H36.0081V28.1131ZM37.9897 26.3833C38.0807 25.7161 38.1276 25.0358 38.1276 24.3456H34.1276C34.1276 24.8545 34.093 25.3542 34.0264 25.8428L37.9897 26.3833ZM38.1276 24.3456C38.1276 16.084 31.4302 9.38672 23.1687 9.38672V13.3867C29.2211 13.3867 34.1276 18.2932 34.1276 24.3456H38.1276ZM23.1687 9.38672C14.9071 9.38672 8.20977 16.084 8.20977 24.3456H12.2098C12.2098 18.2932 17.1162 13.3867 23.1687 13.3867V9.38672ZM8.20977 24.3456C8.20977 25.1232 8.26926 25.8882 8.38429 26.636L12.3378 26.0278C12.2536 25.4806 12.2098 24.9189 12.2098 24.3456H8.20977ZM10.8136 24.3838C10.05 24.2064 9.25613 24.1131 8.44292 24.1131V28.1131C8.94929 28.1131 9.43958 28.1711 9.90847 28.28L10.8136 24.3838ZM8.44292 24.1131C2.67546 24.1131 -2 28.7885 -2 34.556H2C2 30.9977 4.8846 28.1131 8.44292 28.1131V24.1131ZM-2 34.556C-2 40.3235 2.67546 44.9989 8.44292 44.9989L8.44292 40.9989C4.8846 40.9989 2 38.1143 2 34.556H-2ZM8.44292 44.9989C8.48354 44.9989 8.52413 44.9987 8.5647 44.9982L8.51877 40.9985C8.49355 40.9988 8.46827 40.9989 8.44292 40.9989L8.44292 44.9989ZM10.1123 44.2367L10.1127 44.2361L6.97075 41.7606L6.9703 41.7612L10.1123 44.2367ZM38.1897 40.9989H8.54129L8.54129 44.9989H38.1897V40.9989ZM36.1897 42.9984V42.9989H40.1897V42.9984H36.1897Z" fill="url(#paint4_linear_9516_30685)" mask="url(#path-5-inside-1_9516_30685)"/>
</g>
<g id="Union_3" filter="url(#filter2_b_9516_30685)">
<mask id="path-7-inside-2_9516_30685" fill="white">
<path fill-rule="evenodd" clip-rule="evenodd" d="M53.5175 34.232C53.5411 34.2322 53.5647 34.2324 53.5884 34.2324C56.9582 34.2324 59.69 31.5006 59.69 28.1308C59.69 24.7609 56.9582 22.0292 53.5884 22.0292C53.5647 22.0292 53.5411 22.0293 53.5175 22.0296V22.0292H51.9405C51.9974 21.6116 52.0268 21.1852 52.0268 20.752C52.0268 15.5797 47.8339 11.3867 42.6616 11.3867C37.4893 11.3867 33.2963 15.5797 33.2963 20.752C33.2963 21.24 33.3337 21.7194 33.4056 22.1873C32.9603 22.0838 32.4963 22.0292 32.0196 22.0292C28.6498 22.0292 25.918 24.7609 25.918 28.1308C25.918 31.5006 28.6498 34.2324 32.0196 34.2324C32.0435 34.2324 32.0674 34.2322 32.0912 34.232L32.0909 34.2324H53.5175V34.232Z"/>
</mask>
<path fill-rule="evenodd" clip-rule="evenodd" d="M53.5175 34.232C53.5411 34.2322 53.5647 34.2324 53.5884 34.2324C56.9582 34.2324 59.69 31.5006 59.69 28.1308C59.69 24.7609 56.9582 22.0292 53.5884 22.0292C53.5647 22.0292 53.5411 22.0293 53.5175 22.0296V22.0292H51.9405C51.9974 21.6116 52.0268 21.1852 52.0268 20.752C52.0268 15.5797 47.8339 11.3867 42.6616 11.3867C37.4893 11.3867 33.2963 15.5797 33.2963 20.752C33.2963 21.24 33.3337 21.7194 33.4056 22.1873C32.9603 22.0838 32.4963 22.0292 32.0196 22.0292C28.6498 22.0292 25.918 24.7609 25.918 28.1308C25.918 31.5006 28.6498 34.2324 32.0196 34.2324C32.0435 34.2324 32.0674 34.2322 32.0912 34.232L32.0909 34.2324H53.5175V34.232Z" fill="url(#paint5_linear_9516_30685)"/>
<path d="M53.5175 34.232L53.5403 32.2321C53.0059 32.226 52.4914 32.434 52.1113 32.8097C51.7313 33.1854 51.5175 33.6976 51.5175 34.232H53.5175ZM53.5175 22.0296H51.5175C51.5175 22.564 51.7313 23.0761 52.1113 23.4518C52.4914 23.8275 53.0059 24.0355 53.5403 24.0294L53.5175 22.0296ZM53.5175 22.0292H55.5175C55.5175 20.9246 54.622 20.0292 53.5175 20.0292V22.0292ZM51.9405 22.0292L49.9588 21.7589C49.8808 22.3312 50.054 22.9093 50.4338 23.3444C50.8136 23.7795 51.3629 24.0292 51.9405 24.0292V22.0292ZM33.4056 22.1873L32.9531 24.1354C33.5997 24.2856 34.2786 24.1052 34.7654 23.6539C35.2521 23.2027 35.4833 22.5393 35.3824 21.8833L33.4056 22.1873ZM32.0912 34.232L33.662 35.47C34.1388 34.865 34.2258 34.0399 33.8856 33.3487C33.5454 32.6576 32.8385 32.2232 32.0682 32.2321L32.0912 34.232ZM32.0909 34.2324L30.5202 32.9943C30.0459 33.5961 29.957 34.4159 30.2914 35.1053C30.6258 35.7947 31.3247 36.2324 32.0909 36.2324V34.2324ZM53.5175 34.2324V36.2324C54.622 36.2324 55.5175 35.337 55.5175 34.2324H53.5175ZM53.4947 36.2318C53.5258 36.2322 53.5571 36.2324 53.5884 36.2324V32.2324C53.5723 32.2324 53.5563 32.2323 53.5403 32.2321L53.4947 36.2318ZM53.5884 36.2324C58.0628 36.2324 61.69 32.6052 61.69 28.1308H57.69C57.69 30.396 55.8536 32.2324 53.5884 32.2324V36.2324ZM61.69 28.1308C61.69 23.6564 58.0628 20.0292 53.5884 20.0292V24.0292C55.8536 24.0292 57.69 25.8655 57.69 28.1308H61.69ZM53.5884 20.0292C53.5571 20.0292 53.5259 20.0293 53.4947 20.0297L53.5403 24.0294C53.5562 24.0293 53.5723 24.0292 53.5884 24.0292V20.0292ZM51.5175 22.0292V22.0296H55.5175V22.0292H51.5175ZM51.9405 24.0292H53.5175V20.0292H51.9405V24.0292ZM53.9221 22.2994C53.9913 21.7925 54.0268 21.2759 54.0268 20.752H50.0268C50.0268 21.0946 50.0036 21.4306 49.9588 21.7589L53.9221 22.2994ZM54.0268 20.752C54.0268 14.4751 48.9384 9.38672 42.6616 9.38672V13.3867C46.7293 13.3867 50.0268 16.6843 50.0268 20.752H54.0268ZM42.6616 9.38672C36.3847 9.38672 31.2963 14.4751 31.2963 20.752H35.2963C35.2963 16.6843 38.5939 13.3867 42.6616 13.3867V9.38672ZM31.2963 20.752C31.2963 21.3422 31.3415 21.9231 31.4289 22.4913L35.3824 21.8833C35.3258 21.5156 35.2963 21.1379 35.2963 20.752H31.2963ZM33.8581 20.2391C33.2655 20.1015 32.6497 20.0292 32.0196 20.0292V24.0292C32.3429 24.0292 32.6551 24.0662 32.9531 24.1354L33.8581 20.2391ZM32.0196 20.0292C27.5452 20.0292 23.918 23.6564 23.918 28.1308H27.918C27.918 25.8655 29.7543 24.0292 32.0196 24.0292V20.0292ZM23.918 28.1308C23.918 32.6052 27.5452 36.2324 32.0196 36.2324V32.2324C29.7543 32.2324 27.918 30.396 27.918 28.1308H23.918ZM32.0196 36.2324C32.0511 36.2324 32.0827 36.2322 32.1143 36.2318L32.0682 32.2321C32.052 32.2323 32.0358 32.2324 32.0196 32.2324V36.2324ZM33.6616 35.4704L33.662 35.47L30.5205 32.9939L30.5202 32.9943L33.6616 35.4704ZM53.5175 32.2324H32.0909V36.2324H53.5175V32.2324ZM51.5175 34.232V34.2324H55.5175V34.232H51.5175Z" fill="url(#paint6_linear_9516_30685)" mask="url(#path-7-inside-2_9516_30685)"/>
</g>
</g>
<defs>
<filter id="filter0_f_9516_30685" x="-9.08984" y="-3.98828" width="74.7305" height="60.0039" filterUnits="userSpaceOnUse" color-interpolation-filters="sRGB">
<feFlood flood-opacity="0" result="BackgroundImageFix"/>
<feBlend mode="normal" in="SourceGraphic" in2="BackgroundImageFix" result="shape"/>
<feGaussianBlur stdDeviation="7" result="effect1_foregroundBlur_9516_30685"/>
</filter>
<filter id="filter1_b_9516_30685" x="-14" y="-2.61328" width="74.7305" height="59.6113" filterUnits="userSpaceOnUse" color-interpolation-filters="sRGB">
<feFlood flood-opacity="0" result="BackgroundImageFix"/>
<feGaussianBlur in="BackgroundImageFix" stdDeviation="7"/>
<feComposite in2="SourceAlpha" operator="in" result="effect1_backgroundBlur_9516_30685"/>
<feBlend mode="normal" in="SourceGraphic" in2="effect1_backgroundBlur_9516_30685" result="shape"/>
</filter>
<filter id="filter2_b_9516_30685" x="11.918" y="-2.61328" width="61.7715" height="50.8457" filterUnits="userSpaceOnUse" color-interpolation-filters="sRGB">
<feFlood flood-opacity="0" result="BackgroundImageFix"/>
<feGaussianBlur in="BackgroundImageFix" stdDeviation="7"/>
<feComposite in2="SourceAlpha" operator="in" result="effect1_backgroundBlur_9516_30685"/>
<feBlend mode="normal" in="SourceGraphic" in2="effect1_backgroundBlur_9516_30685" result="shape"/>
</filter>
<linearGradient id="paint0_linear_9516_30685" x1="33.9692" y1="0.785156" x2="33.9692" y2="23.9541" gradientUnits="userSpaceOnUse">
<stop stop-color="#FFE600"/>
<stop offset="1" stop-color="#FF7A00"/>
</linearGradient>
<linearGradient id="paint1_linear_9516_30685" x1="33.9692" y1="0.785156" x2="33.9692" y2="23.9541" gradientUnits="userSpaceOnUse">
<stop stop-color="white"/>
<stop offset="1" stop-color="white" stop-opacity="0"/>
</linearGradient>
<linearGradient id="paint2_linear_9516_30685" x1="33.9692" y1="0.783067" x2="33.9692" y2="23.952" gradientUnits="userSpaceOnUse">
<stop stop-color="#FFD600"/>
<stop offset="1" stop-color="#FF7A00"/>
</linearGradient>
<linearGradient id="paint3_linear_9516_30685" x1="23.3651" y1="1.27474" x2="23.3651" y2="47.4168" gradientUnits="userSpaceOnUse">
<stop stop-color="white"/>
<stop offset="1" stop-color="white" stop-opacity="0"/>
</linearGradient>
<linearGradient id="paint4_linear_9516_30685" x1="23.3651" y1="11.3867" x2="23.3651" y2="42.9989" gradientUnits="userSpaceOnUse">
<stop stop-color="white"/>
<stop offset="1" stop-color="white" stop-opacity="0"/>
</linearGradient>
<linearGradient id="paint5_linear_9516_30685" x1="44.3748" y1="12.0739" x2="44.3748" y2="36.8138" gradientUnits="userSpaceOnUse">
<stop stop-color="white"/>
<stop offset="1" stop-color="white" stop-opacity="0"/>
</linearGradient>
<linearGradient id="paint6_linear_9516_30685" x1="42.804" y1="11.3867" x2="42.804" y2="34.2324" gradientUnits="userSpaceOnUse">
<stop stop-color="white"/>
<stop offset="1" stop-color="white" stop-opacity="0"/>
</linearGradient>
</defs>
</svg>
