<svg xmlns="http://www.w3.org/2000/svg" width="16" height="17" viewBox="0 0 16 17" fill="none">
  <path opacity="0.4" d="M11.2667 15.1667H4.73342C3.60009 15.1667 2.66675 14.24 2.66675 13.1V3.90004C2.66675 2.76671 3.59342 1.83337 4.73342 1.83337H11.2667C12.4001 1.83337 13.3334 2.76004 13.3334 3.90004V13.1C13.3334 14.24 12.4067 15.1667 11.2667 15.1667Z" fill="white"/>
  <path d="M13.3334 5.83337H2.66675V9.16671H13.3334V5.83337Z" fill="white"/>
  <path d="M5.33333 13C5.28 13 5.22666 12.9933 5.17333 12.9866C5.12 12.9733 5.06667 12.96 5.01334 12.9333C4.96667 12.9133 4.91333 12.8866 4.87333 12.86C4.82667 12.8266 4.78 12.7933 4.74666 12.7533C4.58666 12.6 4.5 12.3866 4.5 12.1666C4.5 11.9466 4.58666 11.7333 4.74666 11.58C4.78 11.54 4.82667 11.5066 4.87333 11.4733C4.91333 11.4466 4.96667 11.42 5.01334 11.4C5.06667 11.3733 5.12 11.36 5.17333 11.3466C5.44 11.2933 5.72667 11.3866 5.92 11.58C6.08 11.7333 6.16667 11.9466 6.16667 12.1666C6.16667 12.3866 6.08 12.6 5.92 12.7533C5.76667 12.9133 5.55333 13 5.33333 13Z" fill="white"/>
  <path d="M10.6666 13C10.6133 13 10.5599 12.9933 10.5066 12.9867C10.4532 12.9733 10.3999 12.96 10.3466 12.9333C10.2999 12.9133 10.2466 12.8867 10.2066 12.86C10.1599 12.8267 10.1132 12.7933 10.0799 12.7533C9.91992 12.6 9.83325 12.3867 9.83325 12.1667C9.83325 11.9467 9.91992 11.7333 10.0799 11.58C10.1132 11.54 10.1599 11.5067 10.2066 11.4733C10.2466 11.4467 10.2999 11.42 10.3466 11.4C10.3999 11.3733 10.4532 11.36 10.5066 11.3467C10.6132 11.3267 10.7199 11.3267 10.8333 11.3467C10.8799 11.36 10.9332 11.3733 10.9866 11.4C11.0332 11.42 11.0866 11.4467 11.1266 11.4733C11.1733 11.5067 11.2199 11.54 11.2533 11.58C11.4133 11.7333 11.4999 11.9467 11.4999 12.1667C11.4999 12.3867 11.4133 12.6 11.2533 12.7533C11.2199 12.7933 11.1733 12.8267 11.1266 12.86C11.0866 12.8867 11.0332 12.9133 10.9866 12.9333C10.9332 12.96 10.8799 12.9733 10.8333 12.9867C10.7733 12.9933 10.7199 13 10.6666 13Z" fill="white"/>
  <path d="M9.66659 4.33337H6.33325C6.05992 4.33337 5.83325 4.10671 5.83325 3.83337C5.83325 3.56004 6.05992 3.33337 6.33325 3.33337H9.66659C9.93992 3.33337 10.1666 3.56004 10.1666 3.83337C10.1666 4.10671 9.93992 4.33337 9.66659 4.33337Z" fill="white"/>
</svg>