<svg xmlns="http://www.w3.org/2000/svg" width="46" height="39" viewBox="0 0 56 39" fill="none">
<g transform="rotate(30 35 30)" clip-path="url(#clip0_8279_39891)">
<path d="M39.2501 24.8606C38.0085 24.3273 36.6426 24.4818 35.579 25.1516C36.7155 24.3059 38.2617 24.0699 39.6584 24.669C41.7355 25.5606 42.6912 27.9593 41.7944 30.0255C40.9156 32.0495 38.5866 33.0048 36.5404 32.2084C38.4331 32.7825 40.5006 31.8604 41.3046 30.0095C42.1676 28.0214 41.2486 25.7157 39.2515 24.859L39.2501 24.8606Z" fill="#13341C"/>
<path d="M3.23374 30.4307C3.43975 26.8679 6.51087 24.1426 10.0912 24.3439C10.6531 24.3761 11.1937 24.4776 11.7063 24.6401L12.6004 22.5191L12.6944 22.5584L13.5085 20.7467C13.1393 20.6244 12.7018 20.5211 12.1732 20.4496C10.8306 20.268 8.67217 20.5053 8.09704 20.6904C7.38856 20.9179 6.48602 21.4665 6.19021 21.5734C5.8944 21.6802 5.25632 21.6783 5.25632 21.6783C5.25632 21.6783 6.68485 20.1153 7.27489 19.6857C7.86494 19.2561 9.56523 18.8045 10.9772 18.66C11.4763 18.6079 12.2804 18.5791 13.0923 18.6389L13.9809 15.4755L17.2762 12.9757L16.6513 14.5486L17.1823 14.7733L16.8773 15.4517C16.9348 15.4427 16.9924 15.4352 17.0497 15.4248C17.3955 15.3663 17.2174 15.4251 17.4514 15.3277C17.4514 15.3277 17.4698 15.3467 17.4982 15.375C17.9761 14.9899 19.013 14.0503 19.3216 13.5637C19.7215 12.9334 20.3321 12.457 20.5482 12.3331C20.6618 11.7998 21.0302 10.1508 21.343 9.61909C21.0878 9.48335 20.8288 9.35544 20.5634 9.23715C20.6831 8.84921 20.8037 8.49842 20.9296 8.26926C20.9799 8.1776 21.0828 8.073 21.2222 7.96011C21.1611 7.83389 21.0877 7.70449 20.9933 7.5892C20.3867 7.96093 19.8152 8.29473 19.5942 8.40123C19.5942 8.40123 19.2037 8.29004 18.8231 7.72788C18.4957 7.2451 18.5202 7.10696 18.5365 7.00544L18.7469 6.98348L19.1455 6.75712C19.1455 6.75712 18.6876 5.95721 18.4506 4.80499C18.4506 4.80499 17.1582 4.97568 16.8922 4.9811C16.6307 4.98606 16.312 4.97463 16.3272 4.83301C16.3481 4.64608 18.4179 3.51672 18.5742 3.33651C18.9978 2.84683 20.7402 2.13899 22.0672 2.87349C22.2707 2.98633 22.4382 3.11336 22.575 3.24805C22.6221 3.22527 22.6535 3.23986 22.7933 3.40255C22.8923 3.51886 22.9551 3.67618 22.9862 3.84427C23.2557 4.46122 23.1668 5.1156 23.1758 5.48861C23.1823 5.70843 23.1003 6.01346 22.9004 6.27867L23.4877 6.62557C23.504 6.62387 23.517 6.61953 23.5256 6.61565C23.5219 6.62349 23.5167 6.63148 23.5116 6.63946L23.5291 6.64955C23.7644 6.53708 23.9801 6.43709 24.1573 6.35602C24.4546 6.22069 24.8031 6.2737 25.0459 6.49119C25.7811 7.15041 27.3752 8.593 28.4932 9.75007C28.4932 9.75007 29.1926 10.267 30.6196 12.0459C31.1205 12.67 31.2196 13.1885 31.3912 13.3121C31.5629 13.4357 32.5376 14.7404 32.223 15.8146C32.1048 16.2173 31.7711 16.5635 31.3859 16.8466C32.3627 16.4928 34.7661 15.4612 35.2187 15.3931C35.7215 15.3183 35.9216 15.284 36.1698 15.2804C36.3372 15.2778 38.9299 14.5676 40.6999 14.21C41.5797 14.0317 43.4913 14.2269 43.4913 14.2269C43.3546 14.2516 41.6969 15.0534 40.7829 15.4066C38.9349 16.121 37.7355 16.939 37.7606 16.993C37.7782 17.0329 37.2949 17.5094 36.7842 17.9963L38.6339 17.0106C38.7501 16.9478 38.8845 16.9293 39.016 16.9558L39.8424 17.1257C40.0443 17.1672 40.2092 17.3124 40.2964 17.5015C40.5099 17.5536 40.6613 17.6838 40.723 17.7444C40.7916 17.8133 40.882 18.2061 40.8833 18.3043C40.8833 18.3043 40.7045 18.4853 40.6722 18.4768C40.6415 18.4696 40.587 18.1773 40.4585 18.2086C40.4351 18.214 40.4086 18.2183 40.3836 18.2224L40.4091 18.7531C40.4221 19.0214 40.2812 19.264 40.0539 19.3667L33.4133 22.3529L32.9552 22.2964L32.6821 21.8899C32.1384 22.2759 31.5406 22.7317 31.1981 23.0654C30.9371 23.3191 30.259 23.6789 29.5497 24.0137C29.5112 24.1756 29.5175 24.3508 29.6359 24.5097C29.7594 24.6741 29.909 25.0027 30.0464 25.3578C30.2302 25.5263 30.5526 25.9039 30.3458 26.2458C30.391 26.4064 30.4231 26.5416 30.4354 26.6312L31.7004 26.815C31.7799 26.5296 31.8777 26.2467 31.9998 25.9673C33.423 22.6901 37.2451 21.1766 40.5386 22.5893C43.8306 24.0021 45.3475 27.8037 43.9244 31.0824C42.5012 34.3597 38.6791 35.8731 35.3856 34.4604C32.8524 33.3737 31.3725 30.8733 31.472 28.284L29.2796 27.9661C29.2544 28.0403 29.2076 28.1092 29.141 28.1594L28.4231 28.7126C28.2568 28.8402 28.0217 28.826 27.8731 28.6791L27.6157 28.4229C27.2322 28.7654 26.8126 29.0774 26.4846 29.2487C24.833 30.1094 23.165 29.4075 23.165 29.4075C22.393 29.2989 21.8626 29.4824 21.6328 29.3753C21.3212 29.2306 20.828 28.8381 20.4633 28.4858C20.1962 28.6672 19.9083 28.7777 19.6355 28.7749C18.9821 28.7701 18.2253 28.42 18.0251 27.994C17.6652 27.2285 17.7646 26.0293 17.8403 25.4493C17.5926 25.4722 17.3454 25.4711 17.2229 25.3156C16.9778 25.0045 16.6329 24.9287 16.4441 24.6118C16.2553 24.2948 16.0726 23.2188 16.0103 22.9378C15.9479 22.6553 15.9325 22.2502 15.9325 22.2502L16.1309 22.0849C15.6702 21.9319 15.0614 21.6796 14.7653 21.426C14.6403 21.3183 14.4962 21.2142 14.3285 21.114L13.5217 22.9101L13.6362 22.9592L12.7431 25.0756C14.9214 26.2189 16.3479 28.552 16.1964 31.1601C15.9904 34.723 12.9193 37.4482 9.33899 37.2469C5.75869 37.0457 3.02313 33.9925 3.22914 30.4297L3.23374 30.4307ZM30.017 22.8818C30.4617 22.6521 31.2598 21.6198 32.1248 21.0557L31.9742 20.8316C31.1406 21.367 29.9021 22.1682 29.8989 22.1954C29.8773 22.3898 29.8687 22.6947 29.8661 22.9571C29.9246 22.9287 29.9772 22.9023 30.017 22.8818ZM35.7364 33.661C38.5848 34.8833 41.8921 33.574 43.1234 30.7385C44.3547 27.9029 43.0424 24.6133 40.194 23.391C37.3457 22.1688 34.0383 23.478 32.8071 26.3136C32.7164 26.5212 32.6426 26.7315 32.5792 26.9423L32.7829 26.9716C32.8421 26.7777 32.9117 26.5842 32.9951 26.3938C34.1818 23.6612 37.3698 22.4002 40.1146 23.5766C42.8595 24.7545 44.1234 27.9255 42.9383 30.658C41.7516 33.3906 38.5636 34.6516 35.8188 33.4751C33.7448 32.5847 32.5164 30.5572 32.5515 28.4409L32.3493 28.4114C32.3025 30.6168 33.5776 32.7333 35.7379 33.6609L35.7364 33.661ZM39.4998 28.4589C39.5343 29.2777 38.8937 29.9688 38.0724 30.0039C37.4059 30.0318 36.8239 29.6203 36.6094 29.0289L32.889 28.4891C32.8728 30.4574 34.0229 32.3367 35.9526 33.1647C38.5267 34.2696 41.5147 33.086 42.6278 30.5235C43.7408 27.961 42.5545 24.989 39.9805 23.8841C37.4064 22.7792 34.4184 23.9627 33.3053 26.5253C33.2341 26.6891 33.1734 26.8534 33.1204 27.0198L36.8742 27.5635C37.1343 27.2578 37.5161 27.057 37.9484 27.0387C38.7713 27.0034 39.4652 27.6401 39.4996 28.4574L39.4998 28.4589ZM20.7728 16.9654C21.5295 17.171 22.4831 17.4558 23.1953 17.7077C24.3704 16.2129 26.2816 13.8948 26.2816 13.8948C26.2816 13.8948 26.0221 13.6179 25.7289 13.3193C25.1137 12.7623 24.1214 11.9496 23.4751 11.5389C23.2874 12.0069 22.9521 12.8256 22.827 13.0189C22.8012 13.0588 22.7677 13.0966 22.7311 13.1332C22.6285 13.2542 22.4681 13.4393 22.3782 13.5246L22.1261 13.764C21.9637 13.915 21.7532 14.1217 21.5993 14.2972C21.4964 14.4152 21.3255 14.5716 21.1091 14.7358C20.7168 15.0374 20.1822 15.3674 19.6745 15.553C18.8888 15.8436 18.2331 16.1177 18.2331 16.1177C18.2331 16.1177 18.2331 16.1177 18.1296 16.0152C18.1715 16.0585 18.2083 16.0949 18.2334 16.1206C18.3988 16.2851 18.3573 16.3177 18.3345 16.4289C18.3116 16.54 18.1069 16.472 17.9185 16.5751C17.886 16.5934 17.8524 16.6163 17.8177 16.6422C18.5746 16.5349 19.2042 16.5407 20.7728 16.9654ZM19.3839 27.8566C19.5755 27.8992 19.7734 27.8442 19.9537 27.7494C19.9058 27.5637 19.8823 27.4246 19.7291 27.1188C19.5533 26.7692 18.8939 25.8026 18.5703 25.5146C18.5416 25.899 18.5095 26.4089 18.5271 26.635C18.5889 27.3988 18.7617 27.7204 19.3824 27.8567L19.3839 27.8566ZM11.8618 27.176C13.1176 27.9313 13.9232 29.337 13.8316 30.8975C13.7034 33.098 11.8452 34.7907 9.64644 34.7417C11.6238 34.6351 13.2476 33.0636 13.3639 31.0506C13.4456 29.6387 12.7654 28.3584 11.6778 27.6078L10.787 29.7181C11.0564 29.9745 11.2311 30.3287 11.249 30.7291C11.2835 31.5479 10.6429 32.239 9.82156 32.2741C8.99868 32.3094 8.30479 31.6727 8.27037 30.8554C8.2358 30.0366 8.8764 29.3455 9.6978 29.3104C9.70964 29.3091 9.7218 29.3108 9.73381 29.3111L10.664 27.1058C10.3462 27.0019 10.0084 26.9359 9.65907 26.9173C8.30793 26.8408 7.07799 27.4519 6.31008 28.4439C7.08659 27.2618 8.45781 26.5123 9.97614 26.5981C10.2683 26.6138 10.5503 26.6618 10.8215 26.7348L11.1529 25.9508C10.7869 25.8445 10.4054 25.7756 10.0077 25.7531C7.2076 25.5955 4.80813 27.7262 4.64669 30.5111C4.48524 33.2961 6.62416 35.683 9.42277 35.8407C12.2229 35.9983 14.6223 33.8676 14.7838 31.0826C14.8989 29.0876 13.8361 27.2976 12.1939 26.3844L11.859 27.1777L11.8618 27.176ZM9.39343 36.3771C12.4917 36.5513 15.1476 34.1942 15.3273 31.1108C15.4569 28.8819 14.2541 26.8845 12.408 25.8824L12.3287 26.0694C14.0979 27.0378 15.2477 28.9574 15.1239 31.0993C14.9519 34.0701 12.3906 36.3428 9.40524 36.1748C6.41987 36.0067 4.13854 33.4604 4.31053 30.4896C4.48251 27.5188 7.04384 25.2461 10.0292 25.4141C10.4645 25.4387 10.8858 25.5154 11.2861 25.6345L11.3652 25.446C10.9431 25.3187 10.5003 25.2368 10.0409 25.2103C6.94256 25.0362 4.28672 27.3932 4.10702 30.4766C3.9288 33.5598 6.29481 36.2001 9.39328 36.3757L9.39343 36.3771Z" fill="#13341C"/>
</g>
<defs>
<clipPath id="clip0_8279_39891">
<rect width="41.8119" height="34.0928" fill="white" transform="matrix(-0.994594 0.103842 0.103842 0.994594 42.041 0.320312)"/>
</clipPath>
</defs>
</svg>