<svg width="24" height="24" viewBox="0 0 24 24" fill="none" xmlns="http://www.w3.org/2000/svg">
<rect width="24" height="24" rx="12" fill="#F0F0F0"/>
<g clip-path="url(#clip0_9201_16902)">
<g clip-path="url(#clip1_9201_16902)">
<path fill-rule="evenodd" clip-rule="evenodd" d="M7.96347 17.1085C5.25587 14.7179 7.00703 9.39544 11.1696 10.0651V10.558C7.65412 10.3917 6.10664 14.6583 7.96347 17.1085ZM15.5562 7.87536C15.9839 8.2231 16.5738 8.47962 17.3869 8.52858V9.0115C16.4871 8.84242 15.9168 8.38747 15.5562 7.87536ZM14.4275 5.33301C14.4269 5.51122 14.4496 5.70265 14.4783 5.87751H12.8189V14.2841C12.8189 14.6717 12.7797 15.0167 12.7017 15.3195C12.0259 16.835 10.1126 16.637 9.58387 15.597C10.371 16.0985 11.6653 15.9653 12.1966 14.775C12.274 14.4728 12.3131 14.1271 12.3131 13.7396V5.33301H14.4276H14.4275Z" fill="#00F7EF"/>
<path fill-rule="evenodd" clip-rule="evenodd" d="M14.9325 5.87793V5.88873C14.933 6.08335 14.9891 8.89788 17.892 9.0735C17.892 11.6919 17.8934 9.0735 17.8934 11.2482C17.6753 11.2614 15.9826 11.1369 14.9293 10.1809L14.926 14.4144C14.952 16.3314 13.9032 18.2114 11.9397 18.5901C11.3896 18.6961 10.8942 18.7081 10.0627 18.5232C5.27248 17.0653 6.8642 9.83651 11.674 10.6102C11.674 12.9439 11.6754 10.6096 11.6754 12.9439C9.68836 12.6465 9.02364 14.3283 9.55177 15.5325C10.0324 16.6288 12.0107 16.8666 12.7008 15.3199C12.779 15.0172 12.818 14.672 12.818 14.2846V5.87793H14.9325Z" fill="black"/>
<path fill-rule="evenodd" clip-rule="evenodd" d="M11.169 10.5585C11.333 10.5658 11.5017 10.5822 11.6743 10.61C11.6743 12.9437 11.6756 10.6094 11.6756 12.9437C9.68865 12.6463 9.02393 14.3282 9.55206 15.5323C9.56178 15.5542 9.57224 15.5761 9.5833 15.5972C9.34703 15.4469 9.15694 15.2402 9.04635 14.9878C8.51897 13.7835 9.18294 12.1018 11.1699 12.3991C11.1699 10.2601 11.1693 12.0401 11.1693 10.5583L11.169 10.5585ZM17.3864 9.01192C17.5446 9.04157 17.7133 9.06271 17.8923 9.0735C17.8923 11.6919 17.8937 9.0735 17.8937 11.2482C17.6756 11.2614 15.9829 11.1369 14.9296 10.1809L14.9263 14.4144C14.9523 16.3314 13.9035 18.2114 11.94 18.5901C11.3899 18.6961 10.8945 18.7081 10.063 18.5232C9.1269 18.2384 8.43558 17.7324 7.96289 17.109C8.38402 17.4812 8.9126 17.7826 9.55789 17.9793C10.3885 18.1635 10.884 18.1516 11.4341 18.0455C13.3977 17.6665 14.4465 15.7867 14.4211 13.8704L14.4237 9.63625C15.477 10.5922 17.1697 10.7174 17.3885 10.7034C17.3885 8.68379 17.3866 10.7975 17.3866 9.01177L17.3864 9.01192ZM14.9327 5.87793V5.88873C14.9327 6.00322 14.9529 7.0194 15.5558 7.87577C14.8292 7.28428 14.5702 6.42989 14.4777 5.87793H14.9327Z" fill="#FF004F"/>
</g>
</g>
<defs>
<clipPath id="clip0_9201_16902">
<rect width="16" height="16" fill="white" transform="translate(4 4)"/>
</clipPath>
<clipPath id="clip1_9201_16902">
<rect width="11.2281" height="13.3333" fill="white" transform="translate(6.66602 5.33301)"/>
</clipPath>
</defs>
</svg>
