<svg width="24" height="24" viewBox="0 0 24 24" fill="none" xmlns="http://www.w3.org/2000/svg">
<rect width="24" height="24" rx="12" fill="#33E0A0"/>
<g clip-path="url(#clip0_9201_16896)">
<path d="M10.7998 16.513C9.29664 18.0994 6.97819 17.9887 5.59316 16.3856C4.84826 15.5233 4.48068 14.479 4.50078 13.2694C4.52088 12.0566 4.9585 11.0471 5.70919 10.1959C5.30232 9.6909 4.90247 9.19463 4.50291 8.69835L4.51022 8.67925C4.53672 8.67925 4.56321 8.67925 4.58971 8.67925C5.43723 8.67925 6.28446 8.67925 7.13199 8.68064C7.19442 8.68064 7.24619 8.66501 7.29918 8.62473C8.28131 7.87563 9.35481 7.38387 10.5181 7.14841C11.1918 7.01227 11.8706 6.96921 12.5531 7.02165C14.0736 7.13868 15.469 7.67837 16.7374 8.64383C16.7688 8.66779 16.8145 8.67752 16.8534 8.67752C17.7055 8.67925 18.5576 8.6789 19.4094 8.6789C19.4344 8.6789 19.4597 8.6789 19.4846 8.6789L19.4959 8.69662C19.0982 9.19046 18.7005 9.6843 18.2972 10.1851C18.3262 10.2223 18.3527 10.2577 18.3798 10.2921C18.7276 10.7331 19.0275 11.2085 19.2264 11.7628C19.964 13.8188 19.1576 16.2314 17.4065 17.2045C16.7922 17.5459 16.1451 17.6924 15.4657 17.6334C14.6157 17.5598 13.8714 17.193 13.2343 16.546C13.2243 16.5359 13.2136 16.5266 13.1981 16.5123C12.7997 17.0062 12.4035 17.4979 11.9988 18.0001C11.598 17.5031 11.2012 17.0103 10.7998 16.513ZM15.7455 16.2512C17.1497 16.246 18.2796 14.9554 18.2765 13.3603C18.2735 11.7642 17.1373 10.4772 15.7352 10.4817C14.3337 10.4862 13.2115 11.7823 13.2148 13.3919C13.2182 14.9645 14.3614 16.256 15.7455 16.2512ZM8.24446 16.2512C9.63224 16.2553 10.7773 14.9686 10.7825 13.3992C10.7877 11.785 9.66635 10.4897 8.26152 10.481C6.8579 10.472 5.7235 11.7812 5.72015 13.361C5.7168 14.9513 6.84724 16.247 8.24446 16.2512ZM14.7893 9.03765C12.9249 8.20312 11.0706 8.20277 9.20832 9.03765C10.7453 9.81349 11.7844 11.0262 11.9988 12.9123C12.2144 11.0269 13.2517 9.81488 14.7893 9.03765Z" fill="#1D1D1D"/>
<path d="M15.7512 11.8418C16.4909 11.8456 17.0826 12.5301 17.0793 13.3789C17.0759 14.2117 16.4711 14.8927 15.7393 14.8875C14.9959 14.882 14.4085 14.1978 14.4121 13.3417C14.4155 12.5141 15.0191 11.8383 15.7512 11.8421V11.8418Z" fill="#1A1A1A"/>
<path d="M8.24882 11.8418C8.97606 11.837 9.58118 12.5176 9.58544 13.3459C9.59001 14.1944 8.99829 14.883 8.2607 14.8879C7.52616 14.8927 6.92256 14.2166 6.918 13.3834C6.91343 12.5301 7.50301 11.8467 8.24852 11.8418H8.24882Z" fill="#1A1A1A"/>
</g>
<defs>
<clipPath id="clip0_9201_16896">
<rect width="15" height="11" fill="white" transform="translate(4.5 7)"/>
</clipPath>
</defs>
</svg>
