<svg width="24" height="24" viewBox="0 0 24 24" fill="none" xmlns="http://www.w3.org/2000/svg">
<rect width="24" height="24" rx="12" fill="#F0F0F0"/>
<path d="M12.0047 16.565H11.9913C11.95 16.565 7.81465 16.557 6.77132 16.2736C6.19761 16.1191 5.74955 15.6708 5.59532 15.097C5.40771 14.0386 5.31711 12.9652 5.32465 11.8903C5.31981 10.8136 5.41286 9.73877 5.60265 8.67897C5.76113 8.10464 6.20721 7.65427 6.77999 7.4903C7.79465 7.22363 11.816 7.22363 11.9867 7.22363H12.0007C12.0427 7.22363 16.1887 7.23163 17.2213 7.51497C17.7939 7.67031 18.241 8.1177 18.396 8.6903C18.5896 9.75266 18.6805 10.8312 18.6673 11.911C18.672 12.9863 18.5787 14.0598 18.3887 15.1183C18.2325 15.6914 17.7841 16.1387 17.2107 16.2936C16.1973 16.5623 12.1753 16.565 12.0047 16.565ZM10.6713 9.89363L10.668 13.8936L14.1427 11.8936L10.6713 9.89363Z" fill="#F21C1C"/>
</svg>
